HIERARCHY
ROOT root
{
	OFFSET	0	13.1	24.9
	CHANNELS 6  Xposition Yposition Zposition Xrotation Yrotation Zrotation
	JOINT spine_1
	{
		OFFSET	0	9.99999	0
		CHANNELS 3  Xrotation Yrotation Zrotation
		JOINT spine_2
		{
			OFFSET	0	112	-10
			CHANNELS 3  Xrotation Yrotation Zrotation
			JOINT spine_3
			{
				OFFSET	0	206.5	19.3
				CHANNELS 3  Xrotation Yrotation Zrotation
				JOINT spine_4
				{
					OFFSET	0	110.4	14.6
					CHANNELS 3  Xrotation Yrotation Zrotation
					JOINT neck_1
					{
						OFFSET	0	71.8	-50.3
						CHANNELS 3  Xrotation Yrotation Zrotation
						JOINT neck_2
						{
							OFFSET	0	86.2	-25.8
							CHANNELS 3  Xrotation Yrotation Zrotation
							JOINT head_ee
							{
								OFFSET	0	179.8	-8.7
								CHANNELS 3  Xrotation Yrotation Zrotation
								End Site
								{
									OFFSET	1	0	0
								}
							}
						}
					}
					JOINT left_clavicle
					{
						OFFSET	-43.2	22.4	-70.8
						CHANNELS 3  Xrotation Yrotation Zrotation
						JOINT left_shoulder
						{
							OFFSET	-93.9	-5.79999	48.7
							CHANNELS 3  Xrotation Yrotation Zrotation
							JOINT left_elbow
							{
								OFFSET	-291.4	-30.8	15.2
								CHANNELS 3  Xrotation Yrotation Zrotation
								JOINT left_lowarm_twist
								{
									OFFSET	-110.7	-3.89999	13.6
									CHANNELS 3  Xrotation Yrotation Zrotation
									JOINT left_hand
									{
										OFFSET	-110.7	-3.89999	13.6
										CHANNELS 3  Xrotation Yrotation Zrotation
										JOINT left_ee
										{
											OFFSET	-80.8	-5.10001	12.1
											CHANNELS 3  Xrotation Yrotation Zrotation
											End Site
											{
												OFFSET	1	0	0
											}
										}
									}
								}
							}
						}
					}
					JOINT right_clavicle
					{
						OFFSET	43.2	22.4	-70.8
						CHANNELS 3  Xrotation Yrotation Zrotation
						JOINT right_shoulder
						{
							OFFSET	93.9	-5.79999	48.7
							CHANNELS 3  Xrotation Yrotation Zrotation
							JOINT right_elbow
							{
								OFFSET	291.4	-30.8	15.2
								CHANNELS 3  Xrotation Yrotation Zrotation
								JOINT right_lowarm_twist
								{
									OFFSET	110.7	-3.89999	13.6
									CHANNELS 3  Xrotation Yrotation Zrotation
									JOINT right_hand
									{
										OFFSET	110.7	-3.89999	13.6
										CHANNELS 3  Xrotation Yrotation Zrotation
										JOINT right_ee
										{
											OFFSET	80.8	-5.10001	12.1
											CHANNELS 3  Xrotation Yrotation Zrotation
											End Site
											{
												OFFSET	1	0	0
											}
										}
									}
								}
							}
						}
					}
				}
			}
		}
	}
	JOINT left_hip
	{
		OFFSET	-82.8	-127.5	0.300001
		CHANNELS 3  Xrotation Yrotation Zrotation
		JOINT left_knee
		{
			OFFSET	-28.2	-396.7	2.2
			CHANNELS 3  Xrotation Yrotation Zrotation
			JOINT left_ankle
			{
				OFFSET	-11.7	-411.3	35.4
				CHANNELS 3  Xrotation Yrotation Zrotation
				JOINT left_toes
				{
					OFFSET	0	-60	-88.6
					CHANNELS 3  Xrotation Yrotation Zrotation
					JOINT left_foot_ee
					{
						OFFSET	-22.5	-16.5	-42.2
						CHANNELS 3  Xrotation Yrotation Zrotation
						End Site
						{
							OFFSET	1	0	0
						}
					}
				}
			}
		}
	}
	JOINT right_hip
	{
		OFFSET	82.8	-127.5	0.300001
		CHANNELS 3  Xrotation Yrotation Zrotation
		JOINT right_knee
		{
			OFFSET	28.2	-396.7	2.2
			CHANNELS 3  Xrotation Yrotation Zrotation
			JOINT right_ankle
			{
				OFFSET	11.7	-411.3	35.4
				CHANNELS 3  Xrotation Yrotation Zrotation
				JOINT right_toes
				{
					OFFSET	0	-60	-88.6
					CHANNELS 3  Xrotation Yrotation Zrotation
					JOINT right_foot_ee
					{
						OFFSET	22.5	-16.5	-42.2
						CHANNELS 3  Xrotation Yrotation Zrotation
						End Site
						{
							OFFSET	1	0	0
						}
					}
				}
			}
		}
	}
}
MOTION
Frames: 6
Frame Time: 0.02
3502.35 743.167 -643.87 -9.63781 48.0308 11.6552 1.83954 0.274058 1.09555 1.84019 0.203794 1.11077 1.84419 0.00214274 1.1293 1.84245 0.180457 1.11479 -2.79171 -15.328 -3.00378 -2.49707 -25.551 -5.26159 -0.0 0.0 -0.0 -0.564709 20.7895 1.604 -7.45943 -48.1884 62.8276 0.716225 -19.5345 0.123294 12.247 0.267968 -1.53853 -1.91331 19.6917 -3.45985 -0.0 0.0 -0.0 7.61265 9.21618 -14.7133 -22.1983 27.168 -63.1494 0.925772 24.6358 -0.202158 30.2287 -0.0592312 3.81659 -0.372668 -7.26362 -0.602712 0.0 0.0 0.0 7.75103 4.12595 -1.99429 -15.2231 0.321941 2.30712 34.1191 5.02333 -4.31237 -24.105 0.0 0.0 -0.0 0.0 -0.0 25.8449 12.2673 -0.52484 -26.2323 -0.16984 -3.987 8.04893 -28.6951 1.23084 10.134 -0.0 -0.0 0.0 0.0 0.0 
3490.6 743.71 -650.941 -10.2937 48.9671 12.7642 1.78939 0.481546 1.20303 1.79011 0.404024 1.23123 1.79892 0.176675 1.28371 1.79682 0.37718 1.23971 -1.87172 -13.6583 -1.09094 -1.56402 -23.8297 -2.87513 -0.0 0.0 -0.0 -0.886741 23.3054 1.48032 -3.79268 -45.6743 62.4913 0.968334 -25.6258 0.220235 8.96563 0.228552 -1.1213 -2.46062 16.7394 -8.2554 -0.0 0.0 -0.0 7.83426 7.43395 -15.2283 -25.6148 27.6898 -62.4463 0.959268 25.4163 -0.216328 29.1951 -0.0905301 3.68828 0.0684383 -6.85434 -3.30385 0.0 0.0 0.0 7.14724 10.2033 -3.28179 -11.8253 0.303475 1.78619 34.0478 5.3808 -4.30511 -23.924 0.0 0.0 -0.0 0.0 -0.0 23.7071 10.9852 -0.249391 -20.1617 -0.293682 -3.06409 9.09792 -20.8193 1.33057 8.01213 -0.0 -0.0 0.0 0.0 0.0 
3485.13 744.616 -649.657 -9.26463 48.2236 11.988 1.54236 0.371092 1.13461 1.54303 0.298147 1.15592 1.54919 0.0808035 1.19101 1.54731 0.267874 1.1633 -1.56453 -13.1131 -3.27769 -1.31333 -21.0505 -5.07201 -0.0 0.0 -0.0 -1.11281 23.871 1.25023 -2.61799 -45.2413 62.539 1.11975 -29.0159 0.289763 7.25391 0.198525 -0.904718 -2.66908 14.9013 -10.5148 -0.0 0.0 -0.0 8.39229 9.17862 -16.3735 -25.5308 27.0046 -61.6646 0.907742 24.2117 -0.194704 28.8037 -0.101777 3.63955 0.255947 -6.4176 -4.35113 0.0 0.0 0.0 6.38197 13.3134 -3.11427 -11.2776 0.297608 1.70236 33.2647 3.50025 -4.23018 -23.6534 0.0 0.0 -0.0 0.0 -0.0 26.1487 4.70017 0.41752 -16.6604 -0.320451 -2.52763 11.0526 -14.5957 1.57622 7.19578 -0.0 -0.0 0.0 0.0 0.0 
3477.57 742.812 -661.144 -8.91308 49.3048 11.6048 1.6357 0.313302 1.1065 1.63635 0.242263 1.12419 1.64121 0.0335309 1.1495 1.63943 0.214641 1.12979 -0.45708 -11.6267 -1.79429 -0.210478 -19.3602 -3.18204 -0.0 0.0 -0.0 -1.6649 23.9371 0.511697 -1.10226 -45.9502 62.021 1.20922 -30.9208 0.334457 5.84114 0.168875 -0.726688 -2.97631 13.3342 -13.3144 -0.0 0.0 -0.0 7.73753 8.84795 -14.989 -25.1117 26.4867 -64.4018 0.881634 23.5923 -0.184125 28.5676 -0.108401 3.61011 0.132366 -7.86475 -4.13194 0.0 0.0 0.0 4.36163 13.693 -2.99012 -8.73382 0.25987 1.31389 31.7494 2.82387 -4.07819 -24.74 0.0 0.0 -0.0 0.0 -0.0 26.2918 2.91634 0.489545 -10.297 -0.285105 -1.55242 11.3543 -8.36547 1.60629 5.82841 -0.0 -0.0 0.0 0.0 0.0 
3469.2 741.939 -660.381 -9.45933 50.2955 11.7058 1.59188 0.295076 1.25829 1.59273 0.214416 1.27451 1.59762 -0.0222109 1.29223 1.59534 0.182134 1.27952 -1.4574 -10.9748 -2.14493 -1.27442 -18.0637 -3.61117 -0.0 0.0 -0.0 -0.268828 24.2287 2.43613 -0.0278831 -43.2363 60.5686 1.3039 -32.8574 0.384482 4.82819 0.144917 -0.599512 -3.08955 12.492 -14.5091 -0.0 0.0 -0.0 7.72623 10.9811 -14.8937 -25.5439 27.3551 -65.4236 0.782708 21.1928 -0.146431 28.3852 -0.113434 3.58736 0.0764023 -8.12615 -3.87481 0.0 0.0 0.0 3.89978 16.3596 -2.42273 -7.08771 0.226271 1.06353 32.3559 2.37495 -4.14232 -24.2184 0.0 0.0 -0.0 0.0 -0.0 26.8255 0.712701 1.52535 -8.97892 -0.264257 -1.35124 12.4583 -5.86334 1.75617 6.18915 -0.0 -0.0 0.0 0.0 0.0 
3456.84 738.373 -662.211 -8.99857 50.0677 11.0027 1.58915 0.385547 1.22436 1.58993 0.306863 1.2464 1.59676 0.0738203 1.28149 1.59457 0.275266 1.25376 -1.27534 -9.36259 -2.45477 -1.14685 -14.8773 -3.73061 -0.0 0.0 -0.0 -0.97418 23.7623 1.42325 2.08976 -44.9671 61.6387 1.44847 -35.6584 0.46589 3.80692 0.118489 -0.471733 -3.30442 10.6475 -16.9479 -0.0 0.0 -0.0 8.07962 10.8276 -15.6563 -26.276 25.0405 -64.7896 0.737277 20.0635 -0.130425 28.0295 -0.123042 3.54294 -0.207499 -9.62875 -2.6579 0.0 0.0 0.0 3.2208 18.1572 -1.90983 -7.70323 0.239677 1.15703 34.0349 0.911429 -4.31864 -24.6941 0.0 0.0 -0.0 0.0 -0.0 27.2721 -1.02989 1.79612 -9.13166 -0.26691 -1.37453 10.4241 -5.22243 1.48107 5.19642 -0.0 -0.0 0.0 0.0 0.0 
